HIERARCHY
ROOT Hips
{
    OFFSET 0.000000 0.000000 0.000000
    CHANNELS 6 Xposition Yposition Zposition Zrotation Xrotation Yrotation
    JOINT Spine
    {
        OFFSET -0.000000 0.081343 0.000000
        CHANNELS 3 Zrotation Xrotation Yrotation
        JOINT Spine1
        {
            OFFSET -0.000000 0.243280 0.000000
            CHANNELS 3 Zrotation Xrotation Yrotation
            JOINT Neck
            {
                OFFSET -0.000000 0.242281 0.022026
                CHANNELS 3 Zrotation Xrotation Yrotation
                JOINT Head
                {
                    OFFSET -0.000000 0.149025 -0.021289
                    CHANNELS 3 Zrotation Xrotation Yrotation
                    End Site
                    {
                        OFFSET -0.000000 0.198396 0.000000
                    }
                }
            }
            JOINT LeftShoulder
            {
                OFFSET 0.039707 0.224479 -0.002125
                CHANNELS 3 Zrotation Xrotation Yrotation
                JOINT LeftArm
                {
                    OFFSET 0.116942 0.000000 0.000000
                    CHANNELS 3 Zrotation Xrotation Yrotation
                    JOINT LeftForeArm
                    {
                        OFFSET 0.282002 0.000000 0.000000
                        CHANNELS 3 Zrotation Xrotation Yrotation
                        JOINT LeftHand
                        {
                            OFFSET 0.358743 0.000000 0.000000
                            CHANNELS 3 Zrotation Xrotation Yrotation
                            End Site
                            {
                                OFFSET 0.148797 0.000000 0.000000
                            }
                        }
                    }
                }
            }
            JOINT RightShoulder
            {
                OFFSET -0.039404 0.224479 -0.002125
                CHANNELS 3 Zrotation Xrotation Yrotation
                JOINT RightArm
                {
                    OFFSET -0.116942 0.000000 0.000000
                    CHANNELS 3 Zrotation Xrotation Yrotation
                    JOINT RightForeArm
                    {
                        OFFSET -0.282002 0.000000 0.000000
                        CHANNELS 3 Zrotation Xrotation Yrotation
                        JOINT RightHand
                        {
                            OFFSET -0.358743 0.000000 0.000000
                            CHANNELS 3 Zrotation Xrotation Yrotation
                            End Site
                            {
                                OFFSET -0.148797 0.000000 0.000000
                            }
                        }
                    }
                }
            }
        }
    }
    JOINT LeftUpLeg
    {
        OFFSET 0.099198 0.000000 0.000000
        CHANNELS 3 Zrotation Xrotation Yrotation
        JOINT LeftLeg
        {
            OFFSET -0.000000 -0.332973 0.000000
            CHANNELS 3 Zrotation Xrotation Yrotation
            JOINT LeftFoot
            {
                OFFSET -0.000000 -0.491254 0.000000
                CHANNELS 3 Zrotation Xrotation Yrotation
                JOINT LeftToeBase
                {
                    OFFSET -0.000000 -0.064479 0.148797
                    CHANNELS 3 Zrotation Xrotation Yrotation
                    End Site
                    {
                        OFFSET -0.000000 0.000000 0.039679
                    }
                }
            }
        }
    }
    JOINT RightUpLeg
    {
        OFFSET -0.099198 0.000000 0.000000
        CHANNELS 3 Zrotation Xrotation Yrotation
        JOINT RightLeg
        {
            OFFSET -0.000000 -0.332973 0.000000
            CHANNELS 3 Zrotation Xrotation Yrotation
            JOINT RightFoot
            {
                OFFSET -0.000000 -0.491254 0.000000
                CHANNELS 3 Zrotation Xrotation Yrotation
                JOINT RightToeBase
                {
                    OFFSET -0.000000 -0.064479 0.148797
                    CHANNELS 3 Zrotation Xrotation Yrotation
                    End Site
                    {
                        OFFSET -0.000000 0.000000 0.039679
                    }
                }
            }
        }
    }
}
MOTION
Frames:    12
Frame Time:    0.010000
0.814523    0.842389    0.003495    -8.055954    -0.945646    -72.535660    1.766393    3.852062    -7.841500    -6.783751    13.650925    -1.782874    11.325696    21.140848    22.001654    -20.383108    -14.560167    18.144085    -5.012853    19.753162    -12.370824    -10.213058    22.049282    -42.002415    34.706432    14.862100    -58.895531    45.364594    26.434656    -19.017900    4.583116    22.134001    10.359270    34.112896    35.068203    16.572672    -2.180511    -0.292464    60.099358    14.033129    2.361003    11.275842    17.676100    -24.271128    17.214128    -16.916996    28.778751    10.912976    0.036012    -9.566566    20.708561    0.000000    0.000000    0.000000    3.066172    0.245349    -8.359198    5.056729    32.785358    -8.454475    -8.188189    -23.956793    -15.245550    0.000000    0.000000    0.000000    
0.809871    0.842121    0.003264    -8.290194    -0.771036    -72.606209    1.755169    4.084044    -7.605548    -6.593067    13.675225    -1.724810    11.382895    21.135542    21.986885    -20.367756    -14.564980    18.133814    -4.626189    19.196905    -12.129491    -10.889365    22.256353    -42.091400    34.484093    15.266823    -58.868347    45.441292    26.639807    -19.066658    4.537703    22.187937    10.559972    33.858044    35.131134    16.831549    -2.540521    -0.371218    59.947548    14.160070    2.493698    11.235377    17.380224    -24.078407    17.801092    -16.388012    28.238655    10.498651    0.285988    -9.860966    20.451553    0.000000    0.000000    0.000000    3.466739    0.875517    -8.091118    5.123160    32.551952    -8.885345    -8.205606    -23.821865    -14.754688    0.000000    0.000000    0.000000    
0.806332    0.841069    0.003508    -8.166712    -0.537634    -72.623306    1.845683    4.087720    -7.421075    -6.507591    13.569981    -1.678518    11.391744    21.027861    21.963757    -20.305508    -14.485920    18.127743    -4.671739    18.858257    -12.090359    -10.944839    22.497160    -41.798313    34.538158    15.330126    -58.891541    45.616211    26.624077    -19.280212    4.488147    22.256760    10.690211    33.502045    34.998116    17.213243    -2.445609    -0.382659    59.851009    13.910478    2.402858    11.259560    17.021086    -24.492132    17.984674    -16.007212    27.844255    10.131485    -0.219909    -10.169630    20.460590    0.000000    0.000000    0.000000    3.648773    0.873235    -8.326160    5.057570    32.678741    -8.711814    -8.129882    -24.019197    -14.668172    0.000000    0.000000    0.000000    
0.804148    0.840797    0.000889    -8.286416    -0.418004    -73.479935    1.280752    4.975286    -6.542969    -5.840266    12.926380    -1.502953    11.374158    20.922424    21.975018    -20.195084    -14.434541    18.164757    -4.637834    18.762112    -11.973959    -10.886867    22.563429    -41.732086    34.693954    15.327528    -58.905605    45.908428    26.525719    -19.631712    4.419132    22.301323    10.813729    33.211113    35.211761    17.570734    -2.672477    -0.709725    59.736191    13.804988    2.199842    11.319655    17.112736    -24.453539    19.454636    -15.337683    27.605175    9.444114    -0.171358    -9.887669    20.129457    0.000000    0.000000    0.000000    4.183604    0.668273    -7.431355    4.744637    33.141758    -9.080553    -7.738755    -23.945475    -14.341581    0.000000    0.000000    0.000000    
0.800207    0.839599    0.001793    -8.220819    -0.309176    -73.395889    1.360779    5.013278    -6.465280    -5.867420    12.864966    -1.475837    11.428565    20.889462    21.963043    -20.226734    -14.440430    18.141516    -4.606208    18.669104    -11.862353    -10.979711    22.461779    -41.433571    34.482403    15.231931    -59.093437    45.837311    26.488052    -19.407135    4.350207    22.350603    10.981494    32.942471    35.440651    17.873184    -3.164898    -0.929797    59.624332    14.443974    2.337519    11.434423    16.475307    -24.870014    19.195080    -14.983037    27.280085    9.044217    0.844512    -10.114585    20.208874    0.000000    0.000000    0.000000    4.138300    0.836952    -7.601292    4.949010    33.238064    -9.129633    -7.695322    -24.242481    -14.248676    0.000000    0.000000    0.000000    
0.795912    0.836474    0.004798    -7.520411    0.251725    -72.770981    2.234415    3.911743    -6.852917    -6.433669    13.106022    -1.520430    11.413933    20.898806    21.979792    -20.122858    -14.507185    18.175316    -4.416882    19.199467    -11.657657    -10.865536    21.765575    -41.661228    34.267406    15.409137    -59.065918    46.054546    26.488962    -19.382780    4.304800    22.415846    11.159720    32.678955    35.164303    18.139011    -3.069544    -0.786285    59.577881    14.309464    2.411023    11.435098    15.716513    -26.465940    18.475803    -14.337479    27.502226    8.729425    0.947010    -11.177928    20.044514    0.000000    0.000000    0.000000    3.981050    0.404201    -8.809880    5.185501    33.397739    -8.357717    -7.891903    -25.000507    -14.346969    0.000000    0.000000    0.000000    
0.791487    0.836583    0.004484    -7.985534    -0.256412    -73.624222    1.331044    4.897460    -6.030623    -6.004699    12.852842    -1.316782    11.371108    20.874992    22.006001    -20.036825    -14.607436    18.203756    -4.473795    18.723085    -11.580984    -10.875481    22.183800    -41.385738    34.326881    15.370302    -59.072746    46.242138    26.407780    -19.503328    4.208020    22.456537    11.325245    32.432384    35.113441    18.440062    -3.121480    -0.888781    59.534569    14.292047    2.345860    11.520867    14.890534    -25.415901    18.951996    -13.459053    26.598713    7.225936    0.227469    -10.873652    20.075312    0.000000    0.000000    0.000000    3.726004    1.117409    -8.233485    5.011108    33.632465    -8.274046    -7.679802    -25.129322    -14.124805    0.000000    0.000000    0.000000    
0.785819    0.833934    0.005373    -7.707685    0.641852    -73.020432    2.229483    4.053544    -6.323838    -6.146413    13.255672    -1.368246    11.365098    20.888458    21.989603    -20.014771    -14.785232    18.163065    -4.316265    19.273264    -11.443379    -10.725743    21.636383    -41.640564    34.955978    15.951834    -58.541523    48.163811    26.084496    -21.108162    4.181417    22.461901    11.462728    32.207020    34.884499    18.682091    -3.033799    -0.830895    59.490032    14.256632    2.352459    11.552876    15.147160    -26.779276    18.312910    -13.491486    27.336349    6.938158    0.518359    -11.805037    20.082382    0.000000    0.000000    0.000000    4.460882    1.195323    -9.005774    5.107899    33.400303    -8.129037    -7.682908    -25.477039    -14.062916    0.000000    0.000000    0.000000    
0.780663    0.833991    0.004965    -8.271669    0.223896    -73.907738    1.399070    5.019145    -5.463469    -5.733736    13.099486    -1.144475    11.338045    20.840981    22.010912    -19.875629    -14.872916    18.200911    -4.270186    19.149837    -11.304024    -10.663431    21.673664    -41.556469    34.096973    15.310685    -58.743649    46.146595    26.267439    -19.117594    4.111701    22.467279    11.640305    32.027397    34.722511    18.911011    -3.009226    -0.808554    59.466152    14.105683    2.354786    11.636001    14.708192    -25.874079    18.672812    -13.188381    27.042721    5.973199    0.478070    -11.523157    20.351429    0.000000    0.000000    0.000000    4.392530    2.169343    -8.605763    4.763659    33.406021    -6.639212    -8.177752    -25.447203    -15.286769    0.000000    0.000000    0.000000    
0.775907    0.830414    0.005884    -7.542243    1.145186    -73.492828    2.293983    3.923297    -5.721794    -6.073474    13.235013    -1.177025    11.266239    20.888241    22.072943    -19.689371    -15.026097    18.292019    -4.254454    19.094179    -11.054917    -10.553665    21.748957    -41.546307    34.952110    15.889173    -58.385670    48.440964    25.860012    -21.221476    4.053413    22.544775    11.914353    31.847115    34.542408    19.156755    -2.898981    -0.786376    59.449928    13.938115    2.301550    11.680177    15.018339    -27.908686    18.046314    -13.143713    28.166698    8.095687    0.332006    -12.180166    17.562014    0.000000    0.000000    0.000000    4.885394    1.411843    -9.351647    4.872791    33.772354    -7.713353    -7.524173    -26.207270    -13.699250    0.000000    0.000000    0.000000    
0.770155    0.831021    0.008158    -8.350804    -0.047863    -74.130798    1.128016    5.199982    -5.090662    -6.027405    13.188974    -0.985243    11.306084    20.836708    22.100952    -19.587746    -15.085880    18.334681    -4.170190    18.947100    -10.951858    -10.554346    21.632301    -41.443497    34.083801    15.428271    -58.686432    46.773087    26.114164    -19.419436    4.015207    22.545015    12.063918    31.665934    34.404125    19.383358    -3.291670    -0.565154    59.403435    15.714392    2.900355    11.470428    13.229902    -26.493275    16.582378    -13.072951    27.584366    5.725250    2.279085    -11.146635    20.023777    0.000000    0.000000    0.000000    3.668698    2.947589    -9.374070    4.934910    33.914093    -6.878166    -7.237411    -26.415638    -13.983820    0.000000    0.000000    0.000000    
0.765105    0.826690    0.006674    -7.443158    1.592436    -74.128914    2.237812    3.723817    -4.916051    -5.980124    13.435200    -0.910465    11.323919    20.843307    22.119581    -19.467712    -15.181652    18.371988    -4.362017    17.920937    -10.965024    -10.630579    22.528906    -40.936974    34.746941    15.869576    -58.516251    48.415123    25.832245    -21.097181    4.004339    22.566851    12.228060    31.437901    34.165768    19.669327    -3.156711    -0.416499    59.328983    15.774222    2.977254    11.484674    14.979103    -28.838337    16.920303    -13.459671    29.304907    4.463269    4.736269    -11.526588    19.715944    0.000000    0.000000    0.000000    5.250670    1.886714    -9.546378    4.692491    34.051479    -5.784597    -7.812134    -26.845533    -15.029624    0.000000    0.000000    0.000000    
